<?xml version="1.0" encoding="utf-8"?>
<!-- Generator: Adobe Illustrator 27.5.0, SVG Export Plug-In . SVG Version: 6.00 Build 0)  -->
<svg version="1.1" xmlns="http://www.w3.org/2000/svg" xmlns:xlink="http://www.w3.org/1999/xlink" x="0px" y="0px"
	 viewBox="0 0 500 500" style="enable-background:new 0 0 500 500;" xml:space="preserve">
<g id="BACKGROUND">
	<rect style="fill:#FFFFFF;" width="500" height="500"/>
</g>
<g id="OBJECTS">
	<g>
		<defs>
			<circle id="SVGID_1_" cx="250" cy="250" r="202.8"/>
		</defs>
		<clipPath id="SVGID_00000078750267247692488930000004563012747922073997_">
			<use xlink:href="#SVGID_1_"  style="overflow:visible;"/>
		</clipPath>
		
			<rect x="-10.647" style="clip-path:url(#SVGID_00000078750267247692488930000004563012747922073997_);fill:#4F4975;" width="500" height="500"/>
		
			<circle style="clip-path:url(#SVGID_00000078750267247692488930000004563012747922073997_);fill:#BDB6DF;" cx="250" cy="250" r="202.8"/>
		<polygon style="clip-path:url(#SVGID_00000078750267247692488930000004563012747922073997_);fill:#C4C3E2;" points="
			180.539,190.586 307.935,152.398 432.404,228.138 359.451,309.339 180.539,233.044 		"/>
		<polygon style="clip-path:url(#SVGID_00000078750267247692488930000004563012747922073997_);fill:#A6A3CB;" points="
			37.349,215.923 186.78,168.687 387.818,244.427 326.321,334.676 37.349,258.381 		"/>
		<polygon style="clip-path:url(#SVGID_00000078750267247692488930000004563012747922073997_);fill:#9494C4;" points="
			254.689,224.66 393.057,180.921 490.467,240.228 490.463,343.413 254.689,316.289 		"/>
		<g style="clip-path:url(#SVGID_00000078750267247692488930000004563012747922073997_);">
			<polygon style="fill:#4F4975;" points="101.925,224.291 107.626,224.291 98.48,201.197 100.808,200.613 94.939,180.473 
				94.63,179.414 94.321,180.473 88.452,200.613 90.78,201.197 81.634,224.291 87.335,224.291 73.558,265.158 91.948,265.158 
				97.312,265.158 115.702,265.158 			"/>
			<polygon style="fill:#4F4975;" points="423.363,224.291 429.064,224.291 419.918,201.197 422.247,200.613 416.378,180.473 
				416.069,179.414 415.76,180.473 409.891,200.613 412.219,201.197 403.073,224.291 408.774,224.291 394.997,265.158 
				413.387,265.158 418.751,265.158 437.141,265.158 			"/>
			<polygon style="fill:#4F4975;" points="167.661,241.983 172.749,241.983 164.586,221.371 166.665,220.85 161.426,202.875 
				161.15,201.93 160.875,202.875 155.636,220.85 157.715,221.371 149.552,241.983 154.64,241.983 142.343,278.458 158.756,278.458 
				163.544,278.458 179.958,278.458 			"/>
			<polygon style="fill:#4F4975;" points="355.304,259.716 359.1,259.716 353.011,244.34 354.561,243.952 350.653,230.543 
				350.448,229.838 350.242,230.543 346.334,243.952 347.885,244.34 341.796,259.716 345.591,259.716 336.418,286.924 
				348.662,286.924 352.233,286.924 364.477,286.924 			"/>
		</g>
		<polygon style="clip-path:url(#SVGID_00000078750267247692488930000004563012747922073997_);fill:#4F4975;" points="
			30.88,241.661 291.812,300.172 471.525,232.868 471.525,416.784 30.88,416.784 		"/>
		<polygon style="clip-path:url(#SVGID_00000078750267247692488930000004563012747922073997_);fill:#251F3B;" points="
			-8.691,403.31 489.353,403.31 489.353,500 -10.647,500 		"/>
		<g style="clip-path:url(#SVGID_00000078750267247692488930000004563012747922073997_);">
			<g>
				<polygon style="fill:#F8BB12;" points="209.121,237.103 213.813,346.446 215.04,423.889 221.237,423.335 216.836,237.265 				
					"/>
				<path style="fill:#E09600;" d="M216.836,237.265l-1.632-0.034c0.132,10.38,0.729,57.842,0.674,60.906
					c-0.052,2.861,2.936,94.516,3.944,125.325l1.415-0.126L216.836,237.265z"/>
			</g>
			<g>
				<g>
					<polygon style="fill:#EFEFEF;" points="252.387,398.481 252.715,404.85 269.638,403.978 269.385,397.114 					"/>
					<polygon style="fill:#EFEFEF;" points="290.08,397.118 290.08,403.495 304.884,403.495 304.972,396.627 					"/>
					<polygon style="fill:#D1D1D1;" points="252.387,398.481 252.51,400.876 269.5,400.245 269.385,397.114 					"/>
					<polygon style="fill:#D1D1D1;" points="304.972,396.627 290.08,397.118 290.08,399.48 304.943,398.928 					"/>
				</g>
				<g>
					<path style="fill:#D4E3FF;" d="M254.344,284.272c0,0-7.663,46.979-7.152,69.457c0.511,22.478,3.431,45.652,3.431,45.652
						l19.553-1.206v-57.728l13.188-31.1c0,0-3.477,31.355-1.178,42.594c2.299,11.239,4.889,46.097,4.889,46.097l19.576-0.918
						c0,0-3.009-54.375-2.754-56.929c0.171-1.712,3.167-30.86,3.454-47.712c0.141-8.299-0.613-11.875-0.613-11.875L254.344,284.272z
						"/>
					<path style="fill:#9BA9E3;" d="M250.696,342.707c1.458-4.999,6.751-48.185,8.032-58.741l-4.384,0.307
						c0,0-7.663,46.979-7.152,69.457c0.511,22.478,3.431,45.652,3.431,45.652l1.803-0.111
						C251.822,389.865,249.22,347.766,250.696,342.707z"/>
					<path style="fill:#9BA9E3;" d="M297.484,307.573c-8.116,1.774-14.12,1.774-14.12,1.774s-3.477,31.355-1.178,42.594
						c2.299,11.239,4.889,46.097,4.889,46.097l3.782-0.177l0.083-0.004l-6.312-73.73
						C286.741,317.639,297.484,307.573,297.484,307.573z"/>
				</g>
				<polygon style="fill:#E09600;" points="283.526,176.43 283.28,178.301 286.135,177.755 283.657,176.216 				"/>
				<g>
					<path style="fill:#FFCBC0;" d="M263.587,176.953c-2.425,1.507-4.066,1.549-4.066,1.549
						c-8.386-12.578-9.014-29.769-9.014-29.769s10.967-4.659,18.533-3.014c7.566,1.645,12.61,19.956,12.61,19.956
						s1.535,10.088,2.522,12.062c0,0-7.018,4.386-18.531,3.618L263.587,176.953z"/>
					<path style="fill:#FFB9AE;" d="M267.339,147.658c3.682,1.179,8.34,1.575,11.065,4.24c-2.215-4.929-5.451-5.328-9.365-6.179
						c-7.566-1.645-18.533,3.014-18.533,3.014s0.045,1.192,0.26,3.165C256.337,149.942,261.841,145.897,267.339,147.658z"/>
					<path style="fill:#FFB9AE;" d="M274.191,167.877c-0.31-2.174-2.161-4.528-3.166-5.67l-0.481,0.152
						c0.167,1.012,0.392,2.924,0.346,5.777c-0.072,4.439-7.304,8.817-7.304,8.817l2.053,4.403
						C273.42,174.958,274.621,170.884,274.191,167.877z"/>
				</g>
				<path style="fill:#FFCBC0;" d="M219.723,267.636c0,0-5.859,3.081-7.84,3.205c-1.981,0.124-6.474,2.361-4.989,7.808
					c1.486,5.447,7.304,5.571,10.275,4.952c2.971-0.619,9.904-7.18,9.904-7.18L219.723,267.636z"/>
				<path style="fill:#2D2D60;" d="M220.78,262.187c0,0-0.515,2.253-0.883,3.356c-0.368,1.103-1.378,2.481-1.378,2.481l8.178,8.546
					l4.936-2.002C231.633,274.567,225.798,261.588,220.78,262.187z"/>
				<path style="fill:#2D2D60;" d="M255.584,189.415c0,0,1.691-4.288,10.057-8.059c0,0,9.099,0.598,18.531-3.618
					c0,0,20.161-1.931,24.276,14.986c3.634,14.94,0.85,75.699,0.149,89.701c-0.081,1.621-1.419,2.888-3.042,2.888h-49.962
					c-1.809,0-3.219-1.567-3.029-3.366l1.375-13.033c0.185-1.753,0.278-3.515,0.278-5.278v-7.869L255.584,189.415z"/>
				<path style="fill:#251F3B;" d="M265.798,240.194c3.809-25.535,13.934-49.112-1.923-57.98c-6.834,3.534-8.291,7.201-8.291,7.201
					l-1.368,66.352v7.869c0,0.123-0.009,0.246-0.01,0.369C258.032,260.884,263.73,254.057,265.798,240.194z"/>
				<g>
					<path style="fill:#2D2D60;" d="M245.263,137.936c0,0,26.245-10.217,33.078-5.556c6.833,4.662,9.195,12.708,7.727,19.093
						s-4.418,14.202-4.418,14.202l-7.331-4.112c0,0,1.788-8.685-0.319-11.239c-2.107-2.554-4.789,0.256-4.215,4.47l-3.065,0.639
						c0,0-2.107-8.365-5.045-8.429c-2.937-0.064-11.168,1.729-11.168,1.729S244.369,147.642,245.263,137.936z"/>
					<path style="fill:#251F3B;" d="M264.805,140.001c8.171-2.887,13.211,2.8,16.037,5.249c1.826,1.583,4.189,2.237,5.574,3.955
						c0.511-5.929-2.029-12.701-8.075-16.826c-6.833-4.662-33.078,5.556-33.078,5.556c-0.106,1.148-0.107,2.167-0.038,3.086
						C248.375,141.427,258.048,142.389,264.805,140.001z"/>
				</g>
				<path style="fill:#441009;" d="M280.638,159.164l-1.131,0.258c0.012,0.03,0.024,0.06,0.035,0.089L280.638,159.164z"/>
				<path style="fill:#251F3B;" d="M270.544,162.359c-0.093-0.563-0.169-0.856-0.169-0.856l-0.585-2.631l-2.914,0.583l-0.419,2.048
					l-12.271,5.941c0.01,0.028,0.02,0.055,0.029,0.083c1.281,3.704,2.998,7.513,5.305,10.973c0,0,1.641-0.042,4.066-1.549
					c0,0,7.232-4.378,7.304-8.817C270.937,165.284,270.712,163.371,270.544,162.359z"/>
				<polygon style="fill:#E09600;" points="254.187,186.823 255.584,189.415 260.055,185.381 				"/>
				<path style="fill:#F6BE04;" d="M254.187,186.823c0,0,15.584-3.224,18.809,13.231l9.339-6.226c0,0-6.043-16.54-17.586-14.385
					C264.748,179.443,257.837,180.82,254.187,186.823z"/>
				<path style="fill:#F6BE04;" d="M290.024,188.63c0,0-1.264-8.669-6.367-12.414c0,0,3.16-2.032,9.057-0.816
					c1.104,0.228,2.067,0.885,2.724,1.801c1.318,1.838,3.472,5.321,4.294,9.398L290.024,188.63z"/>
				<polygon style="fill:#F7BC08;" points="260.055,237.103 273.714,251.986 273.714,266.34 257.882,245.864 				"/>
				<g>
					<path style="fill:#E09600;" d="M270.542,193.456c0,0,10.955-4.505,21.921-6.058c10.966-1.553,13.592-1.303,13.592-1.303
						s6.842,4.358,7.439,9.334c0.597,4.976,1.194,39.805,1.194,39.805s4.578,2.189,4.677,3.98c0.072,1.294,0.3,17.293,0.421,26.07
						c0.044,3.204-2.412,5.89-5.608,6.126c-11.56,0.855-36.96,2.381-39.793-0.452C270.704,267.277,276.217,201.945,270.542,193.456z
						"/>
					<path style="fill:#EFA706;" d="M286.499,241.661l28.189-6.427c0,0-0.007-0.473-0.043-2.366l-28.069,4.954
						C286.546,240.333,286.517,240.45,286.499,241.661z"/>
					<path style="fill:#F8BB12;" d="M286.48,204.495c0.359,6.39,0.216,23.576,0.097,33.326l28.069-4.954
						c-0.161-8.583-0.662-33.363-1.151-37.439c-0.057-0.476-0.186-0.944-0.346-1.406c-7.715,0.859-24.295,2.837-29.784,4.526
						C285.096,200.071,286.34,202.015,286.48,204.495z"/>
					<path style="fill:#F8BB12;" d="M319.365,239.215c-0.1-1.791-4.677-3.98-4.677-3.98l-28.189,6.427
						c-0.012,0.807-0.02,3.167-0.02,3.167l2.796,2.283c0,0,1.013,22.024,0.002,25.477c8.262-0.068,18.046-0.679,24.282-1.133
						c3.542-0.258,6.267-3.222,6.218-6.773C319.655,255.798,319.436,240.48,319.365,239.215z"/>
					<path style="fill:#EFA706;" d="M313.148,194.023c-1.04-2.998-3.287-5.777-4.591-7.222c-0.604-0.669-1.469-1.026-2.368-0.966
						c-1.996,0.133-6.292,0.51-13.726,1.563c-10.966,1.553-21.921,6.058-21.921,6.058s8.179,1.015,12.823,5.094
						C288.853,196.86,305.433,194.883,313.148,194.023z"/>
					<path style="fill:#E09600;" d="M282.335,198.915c0.274-0.12,0.629-0.242,1.03-0.365c-4.644-4.078-12.823-5.094-12.823-5.094
						c0.819,1.225,1.404,3.638,1.818,6.873"/>
					<path style="fill:#E09600;" d="M301.018,201.011l-4.049,5.529l6.013,3.861l3.217-5.22L301.018,201.011z M300.561,207.335
						l-0.426-2.469l0.766-0.285l0.329,2.675L300.561,207.335z M302.721,206.976l-0.509-2.647l0.817,0.036l0.387,2.443
						L302.721,206.976z"/>
					<polygon style="fill:#E09600;" points="291.845,246.856 316.45,240.194 316.45,242.553 291.845,248.66 					"/>
					<path style="fill:#E09600;" d="M310.388,196.697c0,0,1.061,2.475,0.825,8.838c-0.236,6.363-0.395,23.803-0.395,23.803
						l1.456-1.65c0,0,0-24.863,0-26.513s-1.256-5.005-1.256-5.005L310.388,196.697z"/>
				</g>
				<path style="fill:#FFFFFF;" d="M231.633,274.567c0,0,24.919-17.603,26.062-24.233c1.143-6.63,9.644-47.095,9.644-47.095
					s-1.518-14.271-11.755-13.825c0,0-4.271,2.544-6.098,10.318c-1.827,7.774-9.732,43.744-9.732,43.744
					s-19.237,17.129-18.973,18.71C221.044,263.768,231.633,274.567,231.633,274.567z"/>
				<path style="fill:#4F4975;" d="M251.96,403.343l18.074-0.589c0,0,0.914,15.816,0,19.03c-0.742,2.608-36.652,1.659-36.652,1.659
					l-0.002-2.153c-0.002-1.996,1.129-3.812,2.923-4.686c3.441-1.676,9.586-4.428,16.645-6.483L251.96,403.343z"/>
				<path style="fill:#6968A0;" d="M233.38,421.803l0.002,1.64c0,0,35.91,0.949,36.652-1.659c0.132-0.464,0.225-1.196,0.289-2.099
					C258.286,422.463,245.577,420.682,233.38,421.803z"/>
				<polygon style="fill:#6968A0;" points="251.96,403.343 252.947,410.121 253.684,403.287 				"/>
				<path style="fill:#FFFFFF;" d="M266.879,412.685c0,1.989-2.022,4.099-4.011,4.099c-1.989,0-3.601-1.612-3.601-3.601
					c0-1.989,1.817-4.128,3.806-4.128C265.061,409.054,266.879,410.696,266.879,412.685z"/>
				<path style="fill:#4F4975;" d="M289.196,403.202l16.079-0.177c0,0-0.054,15.835-0.891,19.026
					c-0.679,2.59-29.909-0.632-29.909-0.632l0.061-2.152c0.056-1.995,1.249-3.298,2.734-4.129c2.848-1.594,6.493-3.129,12.297-5.017
					L289.196,403.202z"/>
				<path style="fill:#6968A0;" d="M274.556,419.017c-0.006,0.084-0.019,0.165-0.021,0.25l-0.061,2.152
					c0,0,29.23,3.221,29.909,0.632c0.109-0.416,0.199-1.05,0.273-1.832C297.123,421.177,279.619,419.204,274.556,419.017z"/>
				<path style="fill:#FFFFFF;" d="M301.126,413.041c-0.058,1.988-1.453,3.786-2.94,3.742c-1.487-0.043-3.985-2.292-3.927-4.28
					c0.058-1.988,2.4-3.671,3.887-3.627C299.633,408.919,301.184,411.053,301.126,413.041z"/>
			</g>
		</g>
		<g style="clip-path:url(#SVGID_00000078750267247692488930000004563012747922073997_);">
			<polygon style="fill:#251F3B;" points="71.656,345.113 79.851,345.113 66.704,311.916 70.051,311.078 61.614,282.127 
				61.17,280.604 60.726,282.127 52.289,311.078 55.636,311.916 42.489,345.113 50.684,345.113 30.88,403.859 57.314,403.859 
				65.026,403.859 91.46,403.859 			"/>
			<polygon style="fill:#251F3B;" points="148.927,325.852 159.809,325.852 142.351,281.772 146.796,280.658 135.593,242.215 
				135.004,240.194 134.414,242.215 123.211,280.658 127.656,281.772 110.198,325.852 121.08,325.852 94.782,403.859 
				129.884,403.859 140.123,403.859 175.225,403.859 			"/>
			<polygon style="fill:#251F3B;" points="394.534,312.055 407.341,312.055 386.796,260.178 392.027,258.867 378.842,213.625 
				378.148,211.246 377.455,213.625 364.27,258.867 369.501,260.178 348.956,312.055 361.762,312.055 330.813,403.859 
				372.123,403.859 384.174,403.859 425.484,403.859 			"/>
		</g>
		
			<ellipse transform="matrix(0.2278 -0.9737 0.9737 0.2278 135.6104 379.3308)" style="clip-path:url(#SVGID_00000078750267247692488930000004563012747922073997_);fill:#FFFFFF;" cx="306.966" cy="104.166" rx="19.954" ry="19.954"/>
		<g style="clip-path:url(#SVGID_00000078750267247692488930000004563012747922073997_);">
			<path style="fill:#FFFFFF;" d="M219.548,112.545c0,0.733-0.594,1.327-1.328,1.327c-0.733,0-1.327-0.594-1.327-1.327
				c0-0.733,0.594-1.327,1.327-1.327C218.954,111.217,219.548,111.811,219.548,112.545z"/>
			<circle style="fill:#FFFFFF;" cx="383.518" cy="137.104" r="1.327"/>
			<circle style="fill:#FFFFFF;" cx="212.584" cy="153.225" r="1.327"/>
			<path style="fill:#FFFFFF;" d="M142.343,117.522c0,0.733-0.594,1.327-1.328,1.327c-0.733,0-1.327-0.594-1.327-1.327
				c0-0.733,0.594-1.328,1.327-1.328C141.749,116.195,142.343,116.789,142.343,117.522z"/>
			<path style="fill:#FFFFFF;" d="M254.275,63.426c0,0.733-0.594,1.327-1.327,1.327s-1.327-0.594-1.327-1.327
				c0-0.733,0.594-1.327,1.327-1.327S254.275,62.693,254.275,63.426z"/>
			<circle style="fill:#FFFFFF;" cx="344.688" cy="106.902" r="1.327"/>
			<path style="fill:#FFFFFF;" d="M328.367,179.414c0,0.733-0.594,1.328-1.328,1.328c-0.733,0-1.328-0.594-1.328-1.328
				c0-0.733,0.594-1.327,1.328-1.327C327.773,178.087,328.367,178.681,328.367,179.414z"/>
			<path style="fill:#FFFFFF;" d="M108.057,162.207c0,0.733-0.594,1.327-1.328,1.327c-0.733,0-1.327-0.594-1.327-1.327
				s0.594-1.328,1.327-1.328C107.463,160.88,108.057,161.474,108.057,162.207z"/>
			<path style="fill:#FFFFFF;" d="M181.285,99.933c0,0.733-0.594,1.328-1.327,1.328c-0.733,0-1.328-0.594-1.328-1.328
				c0-0.733,0.594-1.327,1.328-1.327C180.691,98.605,181.285,99.2,181.285,99.933z"/>
		</g>
	</g>
</g>
<g id="DESIGNED_BY_FREEPIK">
	<g>
		<g id="XMLID_29_">
			<g id="XMLID_48_">
				<path id="XMLID_56_" style="fill:#252A30;" d="M260.104,474.049c-0.432,0.443-0.803,0.931-1.108,1.453l-0.465-0.241
					c-0.067-0.298-0.349-0.503-0.659-0.466c-0.331,0.039-0.568,0.339-0.529,0.67c0.039,0.331,0.339,0.568,0.67,0.529
					c0.066-0.008,0.127-0.026,0.184-0.052l0.451,0.234c-0.251,0.554-0.433,1.139-0.539,1.744l0.746,0.132
					c0.23-1.306,0.85-2.507,1.792-3.473L260.104,474.049z"/>
				<path id="XMLID_55_" style="fill:#252A30;" d="M265.592,471.747c-0.171,0-0.341,0.006-0.51,0.017l-0.074-0.626
					c0.188-0.149,0.296-0.389,0.266-0.645c-0.046-0.393-0.402-0.674-0.795-0.628c-0.393,0.046-0.674,0.402-0.628,0.795
					c0.03,0.254,0.189,0.461,0.404,0.564l0.074,0.624c-0.714,0.116-1.403,0.332-2.06,0.646l0.327,0.684
					c0.934-0.447,1.942-0.673,2.995-0.673c0.496,0,0.993,0.053,1.475,0.158l0.161-0.741
					C266.692,471.806,266.142,471.747,265.592,471.747z"/>
				<path id="XMLID_54_" style="fill:#252A30;" d="M272.194,474.295c0.331-0.04,0.566-0.341,0.526-0.672
					c-0.04-0.331-0.341-0.566-0.672-0.526c-0.309,0.038-0.535,0.304-0.53,0.609l-0.416,0.363c-0.418-0.43-0.889-0.813-1.408-1.139
					l-0.404,0.641c1.134,0.715,2.021,1.726,2.563,2.925l0.69-0.313c-0.251-0.554-0.568-1.072-0.942-1.545l0.402-0.351
					C272.065,474.299,272.129,474.303,272.194,474.295z"/>
				<path id="XMLID_53_" style="fill:#252A30;" d="M265.044,481.956c-0.386,0.023-0.775,0.035-1.157,0.035
					c-0.88,0-1.733-0.061-2.478-0.179c-0.39-0.062-0.846-0.155-1.27-0.292c1.046,1.861,3.069,3.125,5.388,3.125
					c2.855,0,5.262-1.916,5.95-4.504c-0.682,0.449-1.505,0.825-2.459,1.123C267.839,481.631,266.463,481.871,265.044,481.956z"/>
				<path id="XMLID_49_" style="fill:#252A30;" d="M265.592,473.263c-3.352,0-6.08,2.666-6.08,5.944
					c0,0.426,0.046,0.849,0.137,1.261c0.673,0.483,2.706,0.89,5.348,0.731c2.879-0.173,5.297-0.957,6.672-2.159
					c-0.006-0.195-0.021-0.39-0.045-0.582C271.244,475.497,268.65,473.263,265.592,473.263z M263.432,479.778
					c-1.02,0-1.85-0.83-1.85-1.85c0-1.02,0.83-1.85,1.85-1.85c1.02,0,1.85,0.83,1.85,1.85
					C265.282,478.949,264.452,479.778,263.432,479.778z M268.17,478.87c-0.75,0-1.36-0.61-1.36-1.36c0-0.75,0.61-1.36,1.36-1.36
					c0.75,0,1.361,0.61,1.361,1.36C269.53,478.26,268.92,478.87,268.17,478.87z"/>
			</g>
			<path id="XMLID_46_" style="fill:#252A30;" d="M281.595,475.131c-0.295-0.116-0.805-0.309-1.382-0.237
				c-0.551,0.069-0.844,0.34-0.844,1.007v0.866h2.228v1.717h-2.228v5.455h-1.932v-5.455h-1.34v-1.717h1.34v-0.888
				c0-1.68,0.896-2.783,2.568-2.783c0.643,0,1.157,0.122,1.59,0.308L281.595,475.131z"/>
			<path id="XMLID_44_" style="fill:#252A30;" d="M286.298,478.463c-0.177-0.03-0.358-0.046-0.526-0.046
				c-0.895,0-1.51,0.548-1.51,1.613v3.908h-1.932v-7.172h1.873v0.785c0.451-0.673,1.14-0.977,2.021-0.977
				c0.414,0,0.848,0.128,1.094,0.337L286.298,478.463z"/>
			<path id="XMLID_41_" style="fill:#252A30;" d="M293.965,480.341c0,0.222-0.015,0.489-0.037,0.651h-5.085
				c0.207,1.036,0.933,1.488,1.843,1.488c0.622,0,1.295-0.252,1.813-0.688l1.133,1.243c-0.814,0.748-1.85,1.088-3.057,1.088
				c-2.198,0-3.723-1.495-3.723-3.752c0-2.258,1.48-3.797,3.627-3.797C292.544,476.573,293.958,478.106,293.965,480.341z
				 M288.851,479.675h3.175c-0.177-0.918-0.733-1.436-1.562-1.436C289.554,478.239,289.021,478.787,288.851,479.675z"/>
			<path id="XMLID_38_" style="fill:#252A30;" d="M301.618,480.341c0,0.222-0.015,0.489-0.037,0.651h-5.085
				c0.207,1.036,0.932,1.488,1.843,1.488c0.622,0,1.295-0.252,1.814-0.688l1.132,1.243c-0.814,0.748-1.85,1.088-3.057,1.088
				c-2.198,0-3.723-1.495-3.723-3.752c0-2.258,1.48-3.797,3.627-3.797C300.197,476.573,301.611,478.106,301.618,480.341z
				 M296.504,479.675h3.175c-0.178-0.918-0.733-1.436-1.562-1.436C297.207,478.239,296.674,478.787,296.504,479.675z"/>
			<path id="XMLID_35_" style="fill:#252A30;" d="M309.964,480.348c0,2.154-1.495,3.775-3.471,3.775
				c-0.962,0-1.643-0.377-2.109-0.933v3.708h-1.924v-10.133h1.887v0.792c0.466-0.585,1.155-0.984,2.139-0.984
				C308.469,476.573,309.964,478.194,309.964,480.348z M304.287,480.348c0,1.132,0.747,1.976,1.843,1.976
				c1.14,0,1.85-0.881,1.85-1.976c0-1.095-0.711-1.976-1.85-1.976C305.035,478.372,304.287,479.216,304.287,480.348z"/>
			<path id="XMLID_32_" style="fill:#252A30;" d="M313.067,474.42c0,0.696-0.54,1.229-1.236,1.229c-0.696,0-1.229-0.533-1.229-1.229
				c0-0.696,0.533-1.243,1.229-1.243C312.527,473.176,313.067,473.724,313.067,474.42z M312.809,483.938h-1.932v-7.172h1.932
				V483.938z"/>
			<path id="XMLID_30_" style="fill:#252A30;" d="M316.032,479.319l2.702-2.554h2.368l-3.479,3.375l3.501,3.797h-2.376l-2.716-2.901
				v2.901H314.1V473.28h1.932V479.319z"/>
		</g>
		<g>
			<path style="fill:#252A30;" d="M184.412,483.873v-1.055c-0.527,0.718-1.391,1.23-2.387,1.23c-1.846,0-3.149-1.406-3.149-3.706
				c0-2.256,1.289-3.721,3.149-3.721c0.952,0,1.816,0.469,2.387,1.245v-3.765h1.099v9.77H184.412z M184.412,481.954v-3.208
				c-0.395-0.615-1.245-1.143-2.124-1.143c-1.421,0-2.27,1.172-2.27,2.739c0,1.567,0.85,2.724,2.27,2.724
				C183.168,483.067,184.017,482.569,184.412,481.954z"/>
			<path style="fill:#252A30;" d="M186.932,480.328c0-2.051,1.465-3.706,3.486-3.706c2.139,0,3.398,1.67,3.398,3.794v0.279h-5.727
				c0.088,1.333,1.025,2.446,2.549,2.446c0.805,0,1.626-0.322,2.182-0.893l0.527,0.718c-0.703,0.703-1.655,1.084-2.812,1.084
				C188.44,484.049,186.932,482.54,186.932,480.328z M190.403,477.531c-1.509,0-2.256,1.274-2.314,2.358h4.643
				C192.718,478.834,192.015,477.531,190.403,477.531z"/>
			<path style="fill:#252A30;" d="M194.607,482.935l0.571-0.791c0.469,0.542,1.362,1.011,2.329,1.011c1.084,0,1.67-0.513,1.67-1.216
				c0-1.714-4.38-0.659-4.38-3.281c0-1.098,0.952-2.036,2.636-2.036c1.201,0,2.051,0.454,2.622,1.025l-0.513,0.762
				c-0.424-0.513-1.201-0.894-2.109-0.894c-0.967,0-1.567,0.483-1.567,1.113c0,1.553,4.38,0.527,4.38,3.281
				c0,1.187-0.952,2.139-2.783,2.139C196.306,484.049,195.325,483.697,194.607,482.935z"/>
			<path style="fill:#252A30;" d="M201.477,475.055c0-0.41,0.337-0.747,0.732-0.747c0.41,0,0.747,0.337,0.747,0.747
				c0,0.41-0.337,0.732-0.747,0.732C201.814,475.787,201.477,475.465,201.477,475.055z M201.667,483.873v-7.075h1.099v7.075H201.667
				z"/>
			<path style="fill:#252A30;" d="M204.582,485.689l0.556-0.82c0.586,0.703,1.289,0.967,2.3,0.967c1.172,0,2.27-0.571,2.27-2.124
				v-1.011c-0.513,0.718-1.377,1.26-2.373,1.26c-1.845,0-3.149-1.377-3.149-3.662c0-2.27,1.289-3.676,3.149-3.676
				c0.952,0,1.802,0.469,2.373,1.245v-1.069h1.098v6.87c0,2.344-1.641,3.076-3.369,3.076
				C206.237,486.744,205.417,486.509,204.582,485.689z M209.709,481.837v-3.091c-0.381-0.615-1.23-1.143-2.109-1.143
				c-1.421,0-2.27,1.128-2.27,2.695c0,1.553,0.849,2.695,2.27,2.695C208.478,482.994,209.328,482.452,209.709,481.837z"/>
			<path style="fill:#252A30;" d="M217.413,483.873v-4.629c0-1.245-0.63-1.641-1.582-1.641c-0.865,0-1.685,0.527-2.095,1.099v5.17
				h-1.099v-7.075h1.099v1.025c0.498-0.586,1.465-1.201,2.519-1.201c1.48,0,2.256,0.747,2.256,2.285v4.966H217.413z"/>
			<path style="fill:#252A30;" d="M219.932,480.328c0-2.051,1.465-3.706,3.486-3.706c2.139,0,3.398,1.67,3.398,3.794v0.279h-5.727
				c0.088,1.333,1.025,2.446,2.549,2.446c0.806,0,1.626-0.322,2.183-0.893l0.527,0.718c-0.703,0.703-1.655,1.084-2.812,1.084
				C221.441,484.049,219.932,482.54,219.932,480.328z M223.404,477.531c-1.509,0-2.256,1.274-2.314,2.358h4.643
				C225.718,478.834,225.015,477.531,223.404,477.531z"/>
			<path style="fill:#252A30;" d="M233.35,483.873v-1.055c-0.527,0.718-1.392,1.23-2.388,1.23c-1.846,0-3.149-1.406-3.149-3.706
				c0-2.256,1.289-3.721,3.149-3.721c0.952,0,1.817,0.469,2.388,1.245v-3.765h1.098v9.77H233.35z M233.35,481.954v-3.208
				c-0.396-0.615-1.245-1.143-2.124-1.143c-1.421,0-2.27,1.172-2.27,2.739c0,1.567,0.849,2.724,2.27,2.724
				C232.105,483.067,232.954,482.569,233.35,481.954z"/>
			<path style="fill:#252A30;" d="M239.692,483.873v-9.77h1.098v3.765c0.572-0.776,1.421-1.245,2.388-1.245
				c1.845,0,3.149,1.465,3.149,3.721c0,2.299-1.304,3.706-3.149,3.706c-0.996,0-1.86-0.513-2.388-1.23v1.055H239.692z
				 M242.9,483.067c1.436,0,2.285-1.157,2.285-2.724c0-1.567-0.85-2.739-2.285-2.739c-0.864,0-1.728,0.527-2.109,1.143v3.208
				C241.171,482.569,242.036,483.067,242.9,483.067z"/>
			<path style="fill:#252A30;" d="M247.528,485.645c0.161,0.073,0.425,0.117,0.601,0.117c0.483,0,0.805-0.161,1.055-0.747
				l0.469-1.069l-2.959-7.148h1.187l2.358,5.801l2.344-5.801h1.201l-3.545,8.51c-0.425,1.025-1.143,1.421-2.08,1.435
				c-0.234,0-0.601-0.044-0.806-0.103L247.528,485.645z"/>
		</g>
	</g>
</g>
</svg>
